<svg width="640" height="360" viewBox="0 0 640 360" xmlns="http://www.w3.org/2000/svg">
  <defs>
    <linearGradient id="bg" x1="0" y1="0" x2="1" y2="1">
      <stop offset="0%" stop-color="#f4f7ff" />
      <stop offset="100%" stop-color="#dfe9ff" />
    </linearGradient>
  </defs>
  <rect width="640" height="360" rx="26" fill="url(#bg)" />
  <rect x="36" y="40" width="568" height="72" rx="16" fill="#ffffff" stroke="#cfdcff" />
  <rect x="60" y="60" width="160" height="12" rx="6" fill="#7ea4ff" />
  <rect x="60" y="80" width="240" height="10" rx="5" fill="#c5d7ff" />
  <rect x="36" y="132" width="260" height="188" rx="18" fill="#ffffff" stroke="#cfdcff" />
  <rect x="60" y="160" width="160" height="10" rx="5" fill="#a5c0ff" />
  <rect x="60" y="182" width="200" height="10" rx="5" fill="#d0dcff" />
  <rect x="60" y="206" width="140" height="10" rx="5" fill="#d0dcff" />
  <rect x="320" y="132" width="284" height="188" rx="18" fill="#ffffff" stroke="#cfdcff" />
  <rect x="344" y="160" width="120" height="10" rx="5" fill="#7ea4ff" />
  <rect x="344" y="182" width="190" height="10" rx="5" fill="#d0dcff" />
  <rect x="344" y="206" width="140" height="10" rx="5" fill="#d0dcff" />
  <rect x="344" y="238" width="210" height="60" rx="12" fill="#e8f0ff" />
</svg>
