<svg width="640" height="360" viewBox="0 0 640 360" xmlns="http://www.w3.org/2000/svg">
  <defs>
    <linearGradient id="bg" x1="0" y1="0" x2="1" y2="1">
      <stop offset="0%" stop-color="#f1f6ff" />
      <stop offset="100%" stop-color="#d6e4ff" />
    </linearGradient>
  </defs>
  <rect width="640" height="360" rx="26" fill="url(#bg)" />
  <rect x="46" y="44" width="548" height="96" rx="18" fill="#ffffff" stroke="#cfdcff" />
  <rect x="72" y="70" width="140" height="12" rx="6" fill="#6f9bff" />
  <rect x="72" y="94" width="240" height="10" rx="5" fill="#c5d7ff" />
  <rect x="46" y="156" width="250" height="160" rx="18" fill="#ffffff" stroke="#cfdcff" />
  <rect x="72" y="184" width="120" height="10" rx="5" fill="#8db0ff" />
  <rect x="72" y="206" width="170" height="10" rx="5" fill="#d0dcff" />
  <rect x="72" y="228" width="140" height="10" rx="5" fill="#d0dcff" />
  <rect x="330" y="156" width="264" height="160" rx="18" fill="#ffffff" stroke="#cfdcff" />
  <rect x="356" y="184" width="150" height="10" rx="5" fill="#6f9bff" />
  <rect x="356" y="206" width="190" height="10" rx="5" fill="#d0dcff" />
  <rect x="356" y="230" width="120" height="10" rx="5" fill="#d0dcff" />
  <rect x="356" y="254" width="200" height="50" rx="12" fill="#e8f0ff" />
</svg>
